<svg width="62" height="62" viewBox="0 0 62 62" fill="none" xmlns="http://www.w3.org/2000/svg">
<circle cx="31" cy="31" r="30.5" fill="#E2F2DB" stroke="#6EBE49"/>
<path d="M31.0001 52.4284C42.8348 52.4284 52.4287 42.8345 52.4287 30.9999C52.4287 19.1652 42.8348 9.57129 31.0001 9.57129C19.1654 9.57129 9.57153 19.1652 9.57153 30.9999C9.57153 42.8345 19.1654 52.4284 31.0001 52.4284Z" fill="#6EBE49"/>
<path fill-rule="evenodd" clip-rule="evenodd" d="M25.8131 25.9163C26.808 25.9163 27.6221 25.142 27.6856 24.1631H32.7467C32.8103 25.142 33.6244 25.9163 34.6193 25.9163H35.5058V25.9163C35.9276 25.9163 36.2695 26.2583 36.2695 26.6801V32.8056C36.2695 33.3579 36.7173 33.8056 37.2695 33.8056C37.8218 33.8056 38.2695 33.3579 38.2695 32.8056V26.6801C38.2695 25.1585 37.0399 23.9241 35.5202 23.9164C35.5155 23.9163 35.5107 23.9163 35.506 23.9163H34.7387C34.6752 22.9374 33.8611 22.1631 32.8662 22.1631H27.5662C26.5713 22.1631 25.7572 22.9374 25.6936 23.9163H24.0447C23.0055 23.9163 22.1631 24.7587 22.1631 25.7979V37.8182C22.1631 39.475 23.5062 40.8182 25.1631 40.8182H34.6244C35.1767 40.8182 35.6244 40.3705 35.6244 39.8182C35.6244 39.2659 35.1767 38.8182 34.6244 38.8182H25.1631C24.6108 38.8182 24.1631 38.3705 24.1631 37.8182V25.9163H25.8131Z" fill="white"/>
<line x1="26.8088" y1="28.2993" x2="33.6252" y2="28.2993" stroke="white" stroke-width="2" stroke-linecap="round" stroke-linejoin="round"/>
<line x1="26.8088" y1="31.8057" x2="33.6252" y2="31.8057" stroke="white" stroke-width="2" stroke-linecap="round" stroke-linejoin="round"/>
<path d="M26.6895 35.4351L31.0976 35.4351" stroke="white" stroke-width="2" stroke-linecap="round" stroke-linejoin="round"/>
<path d="M34.6243 36.312L37.5043 38.0652L40.7957 32.8057" stroke="white" stroke-width="2" stroke-linecap="round" stroke-linejoin="round"/>
</svg>
