<svg width="91" height="23" viewBox="0 0 91 23" fill="none" xmlns="http://www.w3.org/2000/svg">
<path d="M0 0.657227H5.09009V8.83912H13.9081V0.657227H18.9803V22.3429H13.9081V12.8342H5.09009V22.3429H0V0.657227Z" fill="#6EBE49"/>
<path d="M32.3989 0.657227H37.4889L47.6333 22.3429H42.4177L40.3566 17.8761H29.6029L27.4522 22.3429H22.2366L32.3989 0.657227ZM34.9797 6.40667L31.4669 13.8515H38.4747L34.9797 6.40667Z" fill="#6EBE49"/>
<path d="M49.9075 0.657227H54.9259V18.4068H68.6036V22.3429H49.9075V0.657227Z" fill="#6EBE49"/>
<path d="M80.0548 0C83.0465 0 85.6162 1.12147 87.7641 3.3644C89.9216 5.60734 91.0003 8.34153 91.0003 11.567C91.0003 14.7627 89.9359 17.4671 87.8073 19.6803C85.6881 21.8934 83.1136 23 80.0835 23C76.9097 23 74.2728 21.8636 72.1728 19.5909C70.0729 17.3182 69.0229 14.6188 69.0229 11.4926C69.0229 9.39849 69.512 7.47314 70.49 5.71651C71.4681 3.95987 72.8105 2.57044 74.5173 1.54822C76.2337 0.516073 78.0795 0 80.0548 0ZM80.0116 4.07896C78.0555 4.07896 76.4111 4.7836 75.0782 6.19288C73.7454 7.60216 73.079 9.39353 73.079 11.567C73.079 13.9886 73.918 15.904 75.596 17.3133C76.9001 18.4149 78.3959 18.9657 80.0835 18.9657C81.9917 18.9657 83.617 18.2511 84.9594 16.822C86.3018 15.3929 86.973 13.6313 86.973 11.5372C86.973 9.45307 86.297 7.69148 84.945 6.25243C83.593 4.80345 81.9485 4.07896 80.0116 4.07896Z" fill="#6EBE49"/>
</svg>
