<svg width="72" height="72" viewBox="0 0 72 72" fill="none" xmlns="http://www.w3.org/2000/svg">
<path d="M36 71.5C55.6061 71.5 71.5 55.6061 71.5 36C71.5 16.3939 55.6061 0.5 36 0.5C16.3939 0.5 0.5 16.3939 0.5 36C0.5 55.6061 16.3939 71.5 36 71.5Z" fill="#FDEDD4" fill-opacity="0.2" stroke="#F7A528"/>
<path d="M35.9999 60.5C49.5309 60.5 60.4999 49.531 60.4999 36C60.4999 22.469 49.5309 11.5 35.9999 11.5C22.4689 11.5 11.4999 22.469 11.4999 36C11.4999 49.531 22.4689 60.5 35.9999 60.5Z" fill="#F7A528"/>
<path d="M27.4755 30.1854L31.0852 32.9705M40.0099 28.0452L37.6226 31.8981M43.8084 36.0899L39.6858 36.024M41.1359 44.4183L37.7889 39.2635M28.0651 42.8915L31.92 38.9032M40.1411 35.6C40.1411 38.251 37.926 40.4 35.1935 40.4C32.4611 40.4 30.246 38.251 30.246 35.6C30.246 32.949 32.4611 30.8 35.1935 30.8C37.926 30.8 40.1411 32.949 40.1411 35.6ZM28.5968 28.4C28.5968 30.1673 27.12 31.6 25.2984 31.6C23.4767 31.6 22 30.1673 22 28.4C22 26.6327 23.4767 25.2 25.2984 25.2C27.12 25.2 28.5968 26.6327 28.5968 28.4ZM45.9133 25.6C45.9133 27.5882 44.2519 29.2 42.2026 29.2C40.1532 29.2 38.4919 27.5882 38.4919 25.6C38.4919 23.6118 40.1532 22 42.2026 22C44.2519 22 45.9133 23.6118 45.9133 25.6ZM49.9398 35.4199C50.2846 37.1553 49.114 38.8332 47.3253 39.1678C45.5366 39.5023 43.807 38.3667 43.4623 36.6313C43.1175 34.8959 44.288 33.218 46.0767 32.8834C47.8654 32.5489 49.595 33.6846 49.9398 35.4199ZM45.9133 46.8C45.9133 48.5673 44.4365 50 42.6149 50C40.7932 50 39.3165 48.5673 39.3165 46.8C39.3165 45.0327 40.7932 43.6 42.6149 43.6C44.4365 43.6 45.9133 45.0327 45.9133 46.8ZM29.9964 45.915C29.7217 47.8853 27.8527 49.2665 25.8219 49.0001C23.791 48.7336 22.3673 46.9203 22.642 44.9501C22.9166 42.9798 24.7856 41.5985 26.8165 41.865C28.8474 42.1315 30.271 43.9447 29.9964 45.915Z" stroke="white" stroke-width="2"/>
</svg>
