<svg width="90" height="90" viewBox="0 0 90 90" fill="none" xmlns="http://www.w3.org/2000/svg">
<g filter="url(#filter0_d_563_7382)">
<circle cx="44" cy="43" r="35" fill="white"/>
</g>
<ellipse cx="44" cy="43" rx="30" ry="30" fill="#FDEDD4"/>
<path d="M43.9999 64C55.5979 64 64.9999 54.598 64.9999 43C64.9999 31.402 55.5979 22 43.9999 22C32.4019 22 22.9999 31.402 22.9999 43C22.9999 54.598 32.4019 64 43.9999 64Z" fill="#F7A528"/>
<path d="M50.9471 33.6666L53.473 31L55.9989 33.6666" stroke="white" stroke-width="2.5" stroke-linecap="round"/>
<path d="M38.3277 51C38.3277 52.5835 37.128 53.7499 35.7888 53.7499C34.4497 53.7499 33.25 52.5835 33.25 51C33.25 49.4165 34.4497 48.25 35.7888 48.25C37.128 48.25 38.3277 49.4165 38.3277 51Z" stroke="white" stroke-width="2.5"/>
<mask id="path-6-inside-1_563_7382" fill="white">
<rect x="39.5811" y="36.3281" width="10.1036" height="10.6666" rx="1"/>
</mask>
<rect x="39.5811" y="36.3281" width="10.1036" height="10.6666" rx="1" stroke="white" stroke-width="5" mask="url(#path-6-inside-1_563_7382)"/>
<path d="M35.7861 48.3332L35.7861 36.3333C35.7861 34.9188 36.2518 33.5623 37.0808 32.5621C37.9098 31.5619 39.0341 31 40.2064 31C41.3788 31 42.5031 31.5619 43.3321 32.5621C44.161 33.5623 44.6268 34.9188 44.6268 36.3333V36.9259" stroke="white" stroke-width="2.5"/>
<path d="M53.4728 32.3361L53.4728 47.0027C53.4728 48.4171 53.0071 49.7737 52.1781 50.7739C51.3491 51.774 50.2248 52.3359 49.0525 52.3359C47.8801 52.3359 46.7558 51.774 45.9268 50.7739C45.0979 49.7737 44.6322 48.4171 44.6322 47.0026L44.6322 46.4101" stroke="white" stroke-width="2.5"/>
<defs>
<filter id="filter0_d_563_7382" x="0" y="0" width="90" height="90" filterUnits="userSpaceOnUse" color-interpolation-filters="sRGB">
<feFlood flood-opacity="0" result="BackgroundImageFix"/>
<feColorMatrix in="SourceAlpha" type="matrix" values="0 0 0 0 0 0 0 0 0 0 0 0 0 0 0 0 0 0 127 0" result="hardAlpha"/>
<feOffset dx="1" dy="2"/>
<feGaussianBlur stdDeviation="5"/>
<feComposite in2="hardAlpha" operator="out"/>
<feColorMatrix type="matrix" values="0 0 0 0 0.898039 0 0 0 0 0.898039 0 0 0 0 0.898039 0 0 0 1 0"/>
<feBlend mode="normal" in2="BackgroundImageFix" result="effect1_dropShadow_563_7382"/>
<feBlend mode="normal" in="SourceGraphic" in2="effect1_dropShadow_563_7382" result="shape"/>
</filter>
</defs>
</svg>
