<svg width="90" height="90" viewBox="0 0 90 90" fill="none" xmlns="http://www.w3.org/2000/svg">
<g filter="url(#filter0_d_563_7317)">
<circle cx="44" cy="43" r="35" fill="white"/>
</g>
<ellipse cx="44" cy="43" rx="30" ry="30" fill="#FDEDD4"/>
<path d="M43.9999 64C55.5979 64 64.9999 54.598 64.9999 43C64.9999 31.402 55.5979 22 43.9999 22C32.4019 22 22.9999 31.402 22.9999 43C22.9999 54.598 32.4019 64 43.9999 64Z" fill="#F7A528"/>
<path d="M36.6933 38.0161L39.7873 40.4032M47.4371 36.1816L45.3908 39.4841M50.6929 43.0771L47.1593 43.0206M48.4022 50.2157L45.5333 45.7972M37.1986 48.907L40.5029 45.4885M47.5495 42.6571C47.5495 44.9294 45.6509 46.7714 43.3087 46.7714C40.9666 46.7714 39.068 44.9294 39.068 42.6571C39.068 40.3849 40.9666 38.5429 43.3087 38.5429C45.6509 38.5429 47.5495 40.3849 47.5495 42.6571ZM37.6544 36.4857C37.6544 38.0006 36.3886 39.2286 34.8272 39.2286C33.2658 39.2286 32 38.0006 32 36.4857C32 34.9709 33.2658 33.7429 34.8272 33.7429C36.3886 33.7429 37.6544 34.9709 37.6544 36.4857ZM52.4971 34.0857C52.4971 35.7899 51.0731 37.1714 49.3165 37.1714C47.5599 37.1714 46.1359 35.7899 46.1359 34.0857C46.1359 32.3815 47.5599 31 49.3165 31C51.0731 31 52.4971 32.3815 52.4971 34.0857ZM55.9484 42.5028C56.2439 43.9902 55.2406 45.4285 53.7074 45.7152C52.1742 46.0019 50.6918 45.0286 50.3962 43.5411C50.1007 42.0537 51.104 40.6154 52.6372 40.3287C54.1704 40.0419 55.6528 41.0153 55.9484 42.5028ZM52.4971 52.2571C52.4971 53.772 51.2313 55 49.6699 55C48.1085 55 46.8427 53.772 46.8427 52.2571C46.8427 50.7423 48.1085 49.5143 49.6699 49.5143C51.2313 49.5143 52.4971 50.7423 52.4971 52.2571ZM38.854 51.4986C38.6186 53.1874 37.0166 54.3713 35.2759 54.1429C33.5352 53.9145 32.3148 52.3603 32.5503 50.6715C32.7857 48.9827 34.3877 47.7988 36.1284 48.0272C37.8692 48.2556 39.0895 49.8098 38.854 51.4986Z" stroke="white" stroke-width="2"/>
<defs>
<filter id="filter0_d_563_7317" x="0" y="0" width="90" height="90" filterUnits="userSpaceOnUse" color-interpolation-filters="sRGB">
<feFlood flood-opacity="0" result="BackgroundImageFix"/>
<feColorMatrix in="SourceAlpha" type="matrix" values="0 0 0 0 0 0 0 0 0 0 0 0 0 0 0 0 0 0 127 0" result="hardAlpha"/>
<feOffset dx="1" dy="2"/>
<feGaussianBlur stdDeviation="5"/>
<feComposite in2="hardAlpha" operator="out"/>
<feColorMatrix type="matrix" values="0 0 0 0 0.898039 0 0 0 0 0.898039 0 0 0 0 0.898039 0 0 0 1 0"/>
<feBlend mode="normal" in2="BackgroundImageFix" result="effect1_dropShadow_563_7317"/>
<feBlend mode="normal" in="SourceGraphic" in2="effect1_dropShadow_563_7317" result="shape"/>
</filter>
</defs>
</svg>
