<svg width="90" height="90" viewBox="0 0 90 90" fill="none" xmlns="http://www.w3.org/2000/svg">
<g filter="url(#filter0_d_563_7362)">
<circle cx="44.0001" cy="43" r="35" fill="white"/>
</g>
<circle cx="43.9991" cy="43" r="30" fill="#EEEEEE"/>
<path d="M44.0011 64C55.5991 64 65.0011 54.598 65.0011 43C65.0011 31.402 55.5991 22 44.0011 22C32.4031 22 23.0011 31.402 23.0011 43C23.0011 54.598 32.4031 64 44.0011 64Z" fill="#B7B7B7"/>
<path d="M50.9493 33.6666L53.4752 31L56.0011 33.6666" stroke="white" stroke-width="2.5" stroke-linecap="round"/>
<path d="M38.3288 51C38.3288 52.5835 37.1291 53.7499 35.7899 53.7499C34.4508 53.7499 33.2511 52.5835 33.2511 51C33.2511 49.4165 34.4508 48.25 35.7899 48.25C37.1291 48.25 38.3288 49.4165 38.3288 51Z" stroke="white" stroke-width="2.5"/>
<mask id="path-6-inside-1_563_7362" fill="white">
<rect x="39.5811" y="36.3281" width="10.1036" height="10.6666" rx="1"/>
</mask>
<rect x="39.5811" y="36.3281" width="10.1036" height="10.6666" rx="1" stroke="white" stroke-width="5" mask="url(#path-6-inside-1_563_7362)"/>
<path d="M35.786 48.3332L35.786 36.3333C35.786 34.9188 36.2517 33.5623 37.0807 32.5621C37.9097 31.5619 39.034 31 40.2063 31C41.3787 31 42.503 31.5619 43.332 32.5621C44.1609 33.5623 44.6266 34.9188 44.6266 36.3333V36.9259" stroke="white" stroke-width="2.5"/>
<path d="M53.4739 32.3361L53.4739 47.0027C53.4739 48.4171 53.0082 49.7737 52.1792 50.7739C51.3502 51.774 50.2259 52.3359 49.0536 52.3359C47.8812 52.3359 46.7569 51.774 45.9279 50.7739C45.099 49.7737 44.6333 48.4171 44.6333 47.0026L44.6333 46.4101" stroke="white" stroke-width="2.5"/>
<defs>
<filter id="filter0_d_563_7362" x="0.00012207" y="0" width="90" height="90" filterUnits="userSpaceOnUse" color-interpolation-filters="sRGB">
<feFlood flood-opacity="0" result="BackgroundImageFix"/>
<feColorMatrix in="SourceAlpha" type="matrix" values="0 0 0 0 0 0 0 0 0 0 0 0 0 0 0 0 0 0 127 0" result="hardAlpha"/>
<feOffset dx="1" dy="2"/>
<feGaussianBlur stdDeviation="5"/>
<feComposite in2="hardAlpha" operator="out"/>
<feColorMatrix type="matrix" values="0 0 0 0 0.898039 0 0 0 0 0.898039 0 0 0 0 0.898039 0 0 0 1 0"/>
<feBlend mode="normal" in2="BackgroundImageFix" result="effect1_dropShadow_563_7362"/>
<feBlend mode="normal" in="SourceGraphic" in2="effect1_dropShadow_563_7362" result="shape"/>
</filter>
</defs>
</svg>
