<svg width="72" height="72" viewBox="0 0 72 72" fill="none" xmlns="http://www.w3.org/2000/svg">
<circle cx="35.9996" cy="36" r="35.5" fill="#FBE9EA" fill-opacity="0.2" stroke="#EA3947"/>
<path d="M36.0004 60.5005C49.5313 60.5005 60.5004 49.5315 60.5004 36.0005C60.5004 22.4695 49.5313 11.5005 36.0004 11.5005C22.4694 11.5005 11.5004 22.4695 11.5004 36.0005C11.5004 49.5315 22.4694 60.5005 36.0004 60.5005Z" fill="#EA3947"/>
<path d="M44.1053 25.1108L47.0522 21.9998L49.9991 25.1108" stroke="white" stroke-width="2.5" stroke-linecap="round"/>
<path d="M29.59 45.3334C29.59 47.2851 28.1076 48.75 26.4197 48.75C24.7318 48.75 23.2494 47.2851 23.2494 45.3334C23.2494 43.3817 24.7318 41.9167 26.4197 41.9167C28.1076 41.9167 29.59 43.3817 29.59 45.3334Z" stroke="white" stroke-width="2.5"/>
<mask id="path-5-inside-1_731_9128" fill="white">
<rect x="30.8435" y="28.2156" width="11.7875" height="12.4443" rx="1"/>
</mask>
<rect x="30.8435" y="28.2156" width="11.7875" height="12.4443" rx="1" stroke="white" stroke-width="5" mask="url(#path-5-inside-1_731_9128)"/>
<path d="M26.416 42.2218L26.416 28.2219C26.416 26.5717 26.9593 24.9891 27.9265 23.8222C28.8936 22.6553 30.2053 21.9998 31.573 21.9998C32.9408 21.9998 34.2525 22.6553 35.2196 23.8222C36.1867 24.9891 36.7301 26.5717 36.7301 28.2219V28.9133" stroke="white" stroke-width="2.5"/>
<path d="M47.05 23.559L47.05 40.6699C47.05 42.3201 46.5067 43.9028 45.5396 45.0697C44.5725 46.2365 43.2607 46.8921 41.893 46.8921C40.5253 46.8921 39.2136 46.2365 38.2464 45.0697C37.2793 43.9028 36.736 42.3201 36.736 40.6699L36.736 39.9786" stroke="white" stroke-width="2.5"/>
</svg>
