<svg width="62" height="62" viewBox="0 0 62 62" fill="none" xmlns="http://www.w3.org/2000/svg">
<circle cx="31" cy="31" r="30.5" fill="#E2F2DB" stroke="#6EBE49"/>
<path d="M31 52.8571C42.8347 52.8571 52.4286 43.2632 52.4286 31.4286C52.4286 19.5939 42.8347 10 31 10C19.1653 10 9.57141 19.5939 9.57141 31.4286C9.57141 43.2632 19.1653 52.8571 31 52.8571Z" fill="#6EBE49"/>
<path fill-rule="evenodd" clip-rule="evenodd" d="M31.2835 26.6318C31.8095 27.2105 31.7488 28.2173 31.148 28.8806L26.2529 34.2844C25.6521 34.9477 24.7387 35.0161 24.2127 34.4374C23.6867 33.8586 23.7474 32.8518 24.3482 32.1886L29.2434 26.7847C29.8441 26.1215 30.7575 26.053 31.2835 26.6318Z" fill="white"/>
<path fill-rule="evenodd" clip-rule="evenodd" d="M42.0518 23.0748C42.5631 23.6688 42.4773 24.6732 41.8603 25.3181L35.157 32.3245C34.54 32.9695 33.6254 33.0107 33.1141 32.4167C32.6029 31.8227 32.6886 30.8183 33.3056 30.1734L40.0089 23.167C40.6259 22.522 41.5406 22.4808 42.0518 23.0748Z" fill="white"/>
<path fill-rule="evenodd" clip-rule="evenodd" d="M34.9402 32.4933C34.4361 33.0903 33.5217 33.0553 32.8981 32.4152L29.5102 28.9382C28.8865 28.2981 28.7897 27.2953 29.2938 26.6983C29.798 26.1014 30.7123 26.1363 31.336 26.7764L34.7238 30.2534C35.3475 30.8935 35.4444 31.8964 34.9402 32.4933Z" fill="white"/>
<path d="M23.1502 37.5818C22.1569 37.8398 21.2302 36.9304 21.3474 35.8128L21.8126 31.3787C21.9492 30.0762 23.3601 29.4867 24.2503 30.3603L27.7258 33.7707C28.616 34.6443 28.2485 36.2576 27.0909 36.5583L23.1502 37.5818Z" fill="white"/>
</svg>
