<svg width="90" height="90" viewBox="0 0 90 90" fill="none" xmlns="http://www.w3.org/2000/svg">
<circle cx="45.0002" cy="44" r="28" fill="#00A1DD" fill-opacity="0.18"/>
<g filter="url(#filter0_d_591_7201)">
<circle cx="44" cy="43" r="35" fill="white"/>
</g>
<circle cx="44" cy="43" r="30" fill="#00A1DD" fill-opacity="0.18"/>
<path d="M44 64C55.598 64 65 54.598 65 43C65 31.402 55.598 22 44 22C32.402 22 23 31.402 23 43C23 54.598 32.402 64 44 64Z" fill="#00A1DD"/>
<path fill-rule="evenodd" clip-rule="evenodd" d="M43.8513 48.7694C43.3326 48.1913 43.3946 47.1849 43.9898 46.5214L48.8397 41.116C49.4349 40.4526 50.3379 40.3835 50.8566 40.9616C51.3753 41.5397 51.3133 42.5462 50.7181 43.2096L45.8682 48.615C45.273 49.2784 44.37 49.3476 43.8513 48.7694Z" fill="white"/>
<path fill-rule="evenodd" clip-rule="evenodd" d="M32.9128 51.9259C32.4087 51.3326 32.4955 50.3286 33.1067 49.6835L39.7469 42.6753C40.3581 42.0302 41.2623 41.9883 41.7664 42.5816C42.2705 43.175 42.1837 44.179 41.5725 44.824L34.9323 51.8323C34.3211 52.4774 33.4169 52.5193 32.9128 51.9259Z" fill="white"/>
<path fill-rule="evenodd" clip-rule="evenodd" d="M40.0264 42.8715C40.5299 42.2775 41.434 42.3181 42.0458 42.9623L45.3694 46.4614C45.9813 47.1056 46.0691 48.1094 45.5657 48.7034C45.0622 49.2974 44.1581 49.2568 43.5462 48.6126L40.2226 45.1134C39.6108 44.4693 39.5229 43.4655 40.0264 42.8715Z" fill="white"/>
<path d="M51.6988 37.5325C52.7285 37.2614 53.6868 38.2135 53.5629 39.3847L53.0714 44.031C52.927 45.3959 51.4639 46.0147 50.5434 45.1001L46.9498 41.5294C46.0294 40.6149 46.4136 38.9241 47.6136 38.6081L51.6988 37.5325Z" fill="white"/>
<defs>
<filter id="filter0_d_591_7201" x="0" y="0" width="90" height="90" filterUnits="userSpaceOnUse" color-interpolation-filters="sRGB">
<feFlood flood-opacity="0" result="BackgroundImageFix"/>
<feColorMatrix in="SourceAlpha" type="matrix" values="0 0 0 0 0 0 0 0 0 0 0 0 0 0 0 0 0 0 127 0" result="hardAlpha"/>
<feOffset dx="1" dy="2"/>
<feGaussianBlur stdDeviation="5"/>
<feComposite in2="hardAlpha" operator="out"/>
<feColorMatrix type="matrix" values="0 0 0 0 0.898039 0 0 0 0 0.898039 0 0 0 0 0.898039 0 0 0 1 0"/>
<feBlend mode="normal" in2="BackgroundImageFix" result="effect1_dropShadow_591_7201"/>
<feBlend mode="normal" in="SourceGraphic" in2="effect1_dropShadow_591_7201" result="shape"/>
</filter>
</defs>
</svg>
