<svg width="169" height="83" viewBox="0 0 169 83" fill="none" xmlns="http://www.w3.org/2000/svg">
<mask id="mask0_595_7000" style="mask-type:alpha" maskUnits="userSpaceOnUse" x="0" y="0" width="169" height="83">
<rect width="169" height="83" fill="url(#paint0_linear_595_7000)"/>
</mask>
<g mask="url(#mask0_595_7000)">
<path d="M18 53.9999C11.5 88.9999 -1 78.9999 -8.5 82.4999H169V13.5C159.4 11.9 154.333 19.5 153 23.5C150.167 32 141.6 49.9 130 53.5C115.5 58 102.5 52 97.5 29.5C93.5 11.5 81.8333 6.99966 76.5 6.99948C70.5 5.39948 65.3333 12.3328 63.5 15.9995C51.5 58.4995 42 41.4995 33 39.9999C24 38.5004 20 49.1666 18 53.9999Z" fill="url(#paint1_linear_595_7000)"/>
<path d="M-8.5 82.4999C-3.26552 80.0572 4.40451 84.1904 10.7704 75.0114C19.2403 62.7988 18.3398 37.5573 33 39.9999V39.9999C41.4758 41.4121 50.395 56.5717 61.4281 22.8353C62.9013 18.3308 64.0829 13.9449 67.3767 10.5375V10.5375C71.9341 5.82297 80.2672 6.51614 85.7139 10.167C90.404 13.3107 95.2092 19.1916 97.5 29.5C102.5 52 115.5 58 130 53.5C141.6 49.9 150.167 32 153 23.5C154.333 19.5 159.4 11.9 169 13.5" stroke="#19B47E" stroke-width="2"/>
</g>
<defs>
<linearGradient id="paint0_linear_595_7000" x1="84.5" y1="0" x2="84.5" y2="83" gradientUnits="userSpaceOnUse">
<stop stop-color="#CCEEE2"/>
<stop offset="1" stop-color="white"/>
</linearGradient>
<linearGradient id="paint1_linear_595_7000" x1="80.25" y1="6.76367" x2="80.25" y2="82.4999" gradientUnits="userSpaceOnUse">
<stop stop-color="#CCEEE2"/>
<stop offset="0.463542" stop-color="#EAF8F3" stop-opacity="0.406667"/>
<stop offset="1" stop-color="white" stop-opacity="0"/>
</linearGradient>
</defs>
</svg>
