<svg width="62" height="62" viewBox="0 0 62 62" fill="none" xmlns="http://www.w3.org/2000/svg">
<circle cx="31" cy="31" r="30.5" fill="#00A1DD" fill-opacity="0.18" stroke="#00A1DD"/>
<path d="M31 52.8571C42.8347 52.8571 52.4286 43.2632 52.4286 31.4286C52.4286 19.5939 42.8347 10 31 10C19.1653 10 9.57141 19.5939 9.57141 31.4286C9.57141 43.2632 19.1653 52.8571 31 52.8571Z" fill="#00A1DD"/>
<path fill-rule="evenodd" clip-rule="evenodd" d="M30.8513 35.7694C30.3326 35.1913 30.3946 34.1849 30.9898 33.5214L35.8397 28.116C36.4349 27.4526 37.3379 27.3835 37.8566 27.9616C38.3753 28.5397 38.3133 29.5462 37.7181 30.2096L32.8682 35.615C32.273 36.2784 31.37 36.3476 30.8513 35.7694Z" fill="white"/>
<path fill-rule="evenodd" clip-rule="evenodd" d="M19.9128 38.9259C19.4087 38.3326 19.4955 37.3286 20.1067 36.6835L26.7469 29.6753C27.3581 29.0302 28.2623 28.9883 28.7664 29.5816C29.2705 30.175 29.1837 31.179 28.5725 31.824L21.9323 38.8323C21.3211 39.4774 20.4169 39.5193 19.9128 38.9259Z" fill="white"/>
<path fill-rule="evenodd" clip-rule="evenodd" d="M27.0264 29.8725C27.5299 29.2784 28.434 29.3191 29.0458 29.9633L32.3694 33.4624C32.9813 34.1066 33.0691 35.1103 32.5657 35.7044C32.0622 36.2984 31.1581 36.2577 30.5462 35.6136L27.2226 32.1144C26.6108 31.4702 26.5229 30.4665 27.0264 29.8725Z" fill="white"/>
<path d="M38.6988 24.5325C39.7285 24.2614 40.6868 25.2135 40.5629 26.3847L40.0714 31.031C39.927 32.3959 38.4639 33.0147 37.5434 32.1001L33.9498 28.5294C33.0294 27.6149 33.4136 25.9241 34.6136 25.6081L38.6988 24.5325Z" fill="white"/>
</svg>
