<svg width="90" height="90" viewBox="0 0 90 90" fill="none" xmlns="http://www.w3.org/2000/svg">
<ellipse cx="36.5737" cy="40.8574" rx="27.5748" ry="28" fill="#DC1F2E" fill-opacity="0.1"/>
<path d="M36.5736 60.8574C47.4515 60.8574 56.2698 51.9031 56.2698 40.8574C56.2698 29.8117 47.4515 20.8574 36.5736 20.8574C25.6956 20.8574 16.8773 29.8117 16.8773 40.8574C16.8773 51.9031 25.6956 60.8574 36.5736 60.8574Z" fill="#DC1F2E"/>
<path fill-rule="evenodd" clip-rule="evenodd" d="M36.853 36.4882C37.371 37.067 37.3113 38.0738 36.7196 38.737L31.8988 44.1409C31.3071 44.8041 30.4076 44.8726 29.8896 44.2938C29.3716 43.715 29.4314 42.7082 30.023 42.045L34.8439 36.6411C35.4355 35.9779 36.3351 35.9094 36.853 36.4882Z" fill="white"/>
<path fill-rule="evenodd" clip-rule="evenodd" d="M47.4577 32.9332C47.9612 33.5272 47.8768 34.5316 47.2691 35.1765L40.6677 42.1829C40.06 42.8279 39.1593 42.8691 38.6558 42.2751C38.1523 41.6811 38.2367 40.6767 38.8444 40.0318L45.4458 33.0254C46.0535 32.3804 46.9543 32.3392 47.4577 32.9332Z" fill="white"/>
<path fill-rule="evenodd" clip-rule="evenodd" d="M40.4543 42.3507C39.9578 42.9477 39.0574 42.9127 38.4432 42.2726L35.1068 38.7956C34.4926 38.1555 34.3972 37.1527 34.8937 36.5557C35.3902 35.9588 36.2906 35.9938 36.9048 36.6338L40.2412 40.1109C40.8554 40.751 40.9508 41.7538 40.4543 42.3507Z" fill="white"/>
<path d="M28.8434 47.4392C27.8652 47.6972 26.9525 46.7878 27.068 45.6702L27.526 41.2362C27.6606 39.9336 29.0501 39.3442 29.9267 40.2177L33.3495 43.6282C34.2262 44.5017 33.8643 46.1151 32.7243 46.4157L28.8434 47.4392Z" fill="white"/>
<g filter="url(#filter0_d_591_7238)">
<ellipse cx="44.452" cy="43" rx="34.4685" ry="35" fill="white"/>
</g>
<ellipse cx="44.452" cy="43" rx="29.5444" ry="30" fill="#6EBE49" fill-opacity="0.2"/>
<path d="M44.6811 64C56.1029 64 65.3622 54.598 65.3622 43C65.3622 31.402 56.1029 22 44.6811 22C33.2592 22 24 31.402 24 43C24 54.598 33.2592 64 44.6811 64Z" fill="#6EBE49"/>
<path fill-rule="evenodd" clip-rule="evenodd" d="M44.2834 38.6308C44.8093 39.2095 44.7487 40.2164 44.1479 40.8796L39.2527 46.2835C38.6519 46.9467 37.7385 47.0151 37.2126 46.4364C36.6866 45.8576 36.7473 44.8508 37.3481 44.1876L42.2432 38.7837C42.844 38.1205 43.7574 38.052 44.2834 38.6308Z" fill="white"/>
<path fill-rule="evenodd" clip-rule="evenodd" d="M55.0517 35.0758C55.563 35.6698 55.4772 36.6742 54.8602 37.3191L48.1569 44.3255C47.5399 44.9704 46.6253 45.0117 46.114 44.4177C45.6028 43.8237 45.6885 42.8193 46.3055 42.1744L53.0088 35.1679C53.6258 34.523 54.5405 34.4818 55.0517 35.0758Z" fill="white"/>
<path fill-rule="evenodd" clip-rule="evenodd" d="M47.9402 44.4933C47.4361 45.0903 46.5217 45.0553 45.8981 44.4152L42.5102 40.9382C41.8865 40.2981 41.7897 39.2953 42.2938 38.6983C42.798 38.1014 43.7123 38.1363 44.336 38.7764L47.7238 42.2534C48.3475 42.8935 48.4444 43.8964 47.9402 44.4933Z" fill="white"/>
<path d="M36.1502 49.5818C35.1569 49.8398 34.2302 48.9304 34.3474 47.8128L34.8126 43.3787C34.9492 42.0762 36.3601 41.4867 37.2503 42.3603L40.7258 45.7707C41.616 46.6443 41.2485 48.2576 40.0909 48.5583L36.1502 49.5818Z" fill="white"/>
<defs>
<filter id="filter0_d_591_7238" x="0.983521" y="0" width="88.9369" height="90" filterUnits="userSpaceOnUse" color-interpolation-filters="sRGB">
<feFlood flood-opacity="0" result="BackgroundImageFix"/>
<feColorMatrix in="SourceAlpha" type="matrix" values="0 0 0 0 0 0 0 0 0 0 0 0 0 0 0 0 0 0 127 0" result="hardAlpha"/>
<feOffset dx="1" dy="2"/>
<feGaussianBlur stdDeviation="5"/>
<feComposite in2="hardAlpha" operator="out"/>
<feColorMatrix type="matrix" values="0 0 0 0 0.898039 0 0 0 0 0.898039 0 0 0 0 0.898039 0 0 0 1 0"/>
<feBlend mode="normal" in2="BackgroundImageFix" result="effect1_dropShadow_591_7238"/>
<feBlend mode="normal" in="SourceGraphic" in2="effect1_dropShadow_591_7238" result="shape"/>
</filter>
</defs>
</svg>
