<svg width="62" height="62" viewBox="0 0 62 62" fill="none" xmlns="http://www.w3.org/2000/svg">
<circle cx="31" cy="31" r="30" fill="white" fill-opacity="0.2"/>
<circle cx="31" cy="31" r="29.5" stroke="white" stroke-opacity="0.2"/>
<circle cx="31" cy="31" r="30.5" fill="#F7A528" fill-opacity="0.2" stroke="#F7A528"/>
<path d="M31 52.4284C42.8347 52.4284 52.4286 42.8345 52.4286 30.9999C52.4286 19.1652 42.8347 9.57129 31 9.57129C19.1653 9.57129 9.57141 19.1652 9.57141 30.9999C9.57141 42.8345 19.1653 52.4284 31 52.4284Z" fill="#F7A528"/>
<path d="M36.3572 21.69L30.8572 19.8569L25.3572 21.69M36.3572 21.69L30.8572 24.4397M36.3572 21.69V29.939L30.8572 31.7721M30.8572 24.4397L25.3572 21.69M30.8572 24.4397V31.7721M25.3572 21.69V29.939L30.8572 31.7721" stroke="white" stroke-width="1.2"/>
<path d="M41.8572 31.776L36.3572 29.9429L30.8572 31.776M41.8572 31.776L36.3572 34.5256M41.8572 31.776V40.025L36.3572 41.8581M36.3572 34.5256L30.8572 31.776M36.3572 34.5256V41.8581M30.8572 31.776V40.025L36.3572 41.8581" stroke="white" stroke-width="1.2"/>
<path d="M30.8572 31.776L25.3572 29.9429L19.8572 31.776M30.8572 31.776L25.3572 34.5256M30.8572 31.776V40.025L25.3572 41.8581M25.3572 34.5256L19.8572 31.776M25.3572 34.5256V41.8581M19.8572 31.776V40.025L25.3572 41.8581" stroke="white" stroke-width="1.2"/>
</svg>
