<svg width="62" height="62" viewBox="0 0 62 62" fill="none" xmlns="http://www.w3.org/2000/svg">
<circle cx="31" cy="31" r="30" fill="white" fill-opacity="0.2"/>
<circle cx="31" cy="31" r="29.5" stroke="white" stroke-opacity="0.2"/>
<circle cx="31" cy="31" r="30.5" fill="#00A1DD" fill-opacity="0.2" stroke="#00A1DD"/>
<path d="M31 52.4284C42.8347 52.4284 52.4286 42.8345 52.4286 30.9999C52.4286 19.1652 42.8347 9.57129 31 9.57129C19.1653 9.57129 9.57141 19.1652 9.57141 30.9999C9.57141 42.8345 19.1653 52.4284 31 52.4284Z" fill="#00A1DD"/>
<path fill-rule="evenodd" clip-rule="evenodd" d="M28.5714 25.8573C28.5714 24.516 29.6587 23.4287 31 23.4287C32.3412 23.4287 33.4285 24.516 33.4285 25.8573C33.4285 27.1985 32.3412 28.2859 31 28.2859C29.6587 28.2859 28.5714 27.1985 28.5714 25.8573ZM31 21.4287C28.5541 21.4287 26.5714 23.4114 26.5714 25.8573C26.5714 28.3031 28.5541 30.2859 31 30.2859C33.4458 30.2859 35.4285 28.3031 35.4285 25.8573C35.4285 23.4114 33.4458 21.4287 31 21.4287ZM27.5714 31.7144C26.4498 31.7144 25.3455 32.0841 24.5068 32.783C23.6628 33.4864 23.1428 34.4836 23.1428 35.5716V37.0001C23.1428 37.5524 23.5905 38.0001 24.1428 38.0001H37.8571C38.4094 38.0001 38.8571 37.5524 38.8571 37.0001V35.5716C38.8571 34.4836 38.3371 33.4864 37.4931 32.783C36.6544 32.0841 35.5501 31.7144 34.4285 31.7144H27.5714ZM25.7872 34.3195C26.2345 33.9468 26.8743 33.7144 27.5714 33.7144H34.4285C35.1256 33.7144 35.7654 33.9468 36.2127 34.3195C36.6547 34.6878 36.8571 35.144 36.8571 35.5716V36.0001H25.1428V35.5716C25.1428 35.144 25.3453 34.6878 25.7872 34.3195Z" fill="white"/>
</svg>
