<svg width="62" height="62" viewBox="0 0 62 62" fill="none" xmlns="http://www.w3.org/2000/svg">
<circle cx="31" cy="31" r="30" fill="white" fill-opacity="0.2"/>
<circle cx="31" cy="31" r="29.5" stroke="white" stroke-opacity="0.2"/>
<circle cx="31" cy="31" r="30.5" fill="#00A1DD" fill-opacity="0.2" stroke="#00A1DD"/>
<path d="M31 52.4284C42.8347 52.4284 52.4286 42.8345 52.4286 30.9999C52.4286 19.1652 42.8347 9.57129 31 9.57129C19.1653 9.57129 9.57141 19.1652 9.57141 30.9999C9.57141 42.8345 19.1653 52.4284 31 52.4284Z" fill="#00A1DD"/>
<path d="M36.4998 21.8336L30.9998 20.0005L25.4998 21.8336M36.4998 21.8336L30.9998 24.5833M36.4998 21.8336V30.0826L30.9998 31.9157M30.9998 24.5833L25.4998 21.8336M30.9998 24.5833V31.9157M25.4998 21.8336V30.0826L30.9998 31.9157" stroke="white" stroke-width="1.6"/>
<path d="M41.9998 31.9156L36.4998 30.0825L30.9998 31.9156M41.9998 31.9156L36.4998 34.6653M41.9998 31.9156V40.1646L36.4998 41.9978M36.4998 34.6653L30.9998 31.9156M36.4998 34.6653V41.9978M30.9998 31.9156V40.1646L36.4998 41.9978" stroke="white" stroke-width="1.6"/>
<path d="M30.9998 31.9156L25.4998 30.0825L19.9998 31.9156M30.9998 31.9156L25.4998 34.6653M30.9998 31.9156V40.1646L25.4998 41.9978M25.4998 34.6653L19.9998 31.9156M25.4998 34.6653V41.9978M19.9998 31.9156V40.1646L25.4998 41.9978" stroke="white" stroke-width="1.6"/>
</svg>
