<svg width="62" height="62" viewBox="0 0 62 62" fill="none" xmlns="http://www.w3.org/2000/svg">
<circle cx="31" cy="31" r="30" fill="white" fill-opacity="0.2"/>
<circle cx="31" cy="31" r="29.5" stroke="white" stroke-opacity="0.2"/>
<circle cx="31" cy="31" r="30.5" fill="#00A1DD" fill-opacity="0.2" stroke="#00A1DD"/>
<path d="M31 52.4284C42.8347 52.4284 52.4286 42.8345 52.4286 30.9999C52.4286 19.1652 42.8347 9.57129 31 9.57129C19.1653 9.57129 9.57141 19.1652 9.57141 30.9999C9.57141 42.8345 19.1653 52.4284 31 52.4284Z" fill="#00A1DD"/>
<path d="M32.6174 28.4102C29.5018 30.5071 22.9308 36.1372 20.5265 32.5968C20.0071 31.9434 20.4681 29.7432 22.6641 29.4116" stroke="white" stroke-width="1.6"/>
<circle r="1.7" transform="matrix(0.99554 -0.0943352 0.0881771 0.996105 33.2098 27.9842)" fill="white"/>
<rect x="33.3433" y="35.8388" width="2.80275" height="2.8" stroke="white" stroke-width="1.2"/>
<path d="M33.7612 32.7622L35.4933 29.7622L37.2253 32.7622H33.7612Z" stroke="white"/>
<path d="M30.8902 35.4966C30.8902 36.2694 30.2632 36.8966 29.4888 36.8966C28.7145 36.8966 28.0874 36.2694 28.0874 35.4966C28.0874 34.7238 28.7145 34.0966 29.4888 34.0966C30.2632 34.0966 30.8902 34.7238 30.8902 35.4966Z" stroke="white" stroke-width="1.2"/>
<path d="M21.9865 22.9774L25.0003 40.6156C27.4667 41.6293 33.0003 43.0005 39.0003 40.6156L42.0002 22.9774M21.9865 22.9774C21.9865 22.9774 27.7453 25.093 31.9933 24.9505C35.788 24.8232 42.0002 22.9774 42.0002 22.9774M21.9865 22.9774C26.0033 20.4659 29.7308 19.9076 32.5912 20.0123C35.1805 20.1071 38.5513 20.6226 42.0002 22.9774" stroke="white" stroke-width="2"/>
</svg>
