<svg width="28" height="28" viewBox="0 0 28 28" fill="none" xmlns="http://www.w3.org/2000/svg">
<path d="M15.6822 22.332C15.5113 22.6267 15.266 22.8713 14.9708 23.0413C14.6756 23.2113 14.3409 23.3008 14.0003 23.3008C13.6597 23.3008 13.325 23.2113 13.0298 23.0413C12.7346 22.8713 12.4893 22.6267 12.3184 22.332" stroke="#6EBE49" stroke-width="2" stroke-linecap="round" stroke-linejoin="round"/>
<path d="M16 4.99915C15.2109 4.61719 14.1017 4.61719 13.9997 4.61719C12.5557 4.61719 11.1709 5.21536 10.1499 6.2801C9.12884 7.34485 8.55523 8.78895 8.55523 10.2947C8.55523 16.9185 5.83301 19.0476 5.83301 19.0476H22.1663C22.1663 19.0476 20.1336 17.4578 19.5812 12.7518" stroke="#6EBE49" stroke-width="2" stroke-linecap="round" stroke-linejoin="round"/>
<path d="M12 9L14.8125 11.5L21 6" stroke="#6EBE49" stroke-width="2" stroke-linecap="round"/>
</svg>
