<svg width="24" height="24" viewBox="0 0 24 24" fill="none" xmlns="http://www.w3.org/2000/svg">
<path d="M17.4998 2.8336L11.9998 1.00049L6.49976 2.8336M17.4998 2.8336L11.9998 5.58327M17.4998 2.8336V11.0826L11.9998 12.9157M11.9998 5.58327L6.49976 2.8336M11.9998 5.58327V12.9157M6.49976 2.8336V11.0826L11.9998 12.9157" stroke="white" stroke-width="1.6"/>
<path d="M22.9998 12.9156L17.4998 11.0825L11.9998 12.9156M22.9998 12.9156L17.4998 15.6653M22.9998 12.9156V21.1646L17.4998 22.9978M17.4998 15.6653L11.9998 12.9156M17.4998 15.6653V22.9978M11.9998 12.9156V21.1646L17.4998 22.9978" stroke="white" stroke-width="1.6"/>
<path d="M11.9998 12.9156L6.49976 11.0825L0.999756 12.9156M11.9998 12.9156L6.49976 15.6653M11.9998 12.9156V21.1646L6.49976 22.9978M6.49976 15.6653L0.999756 12.9156M6.49976 15.6653V22.9978M0.999756 12.9156V21.1646L6.49976 22.9978" stroke="white" stroke-width="1.6"/>
</svg>
