<svg width="29" height="28" viewBox="0 0 29 28" fill="none" xmlns="http://www.w3.org/2000/svg">
<path d="M5.97162 16.9907C6.60863 18.831 7.81601 20.4108 9.41183 21.492C11.0076 22.5732 12.9055 23.0972 14.8193 22.9851C16.7332 22.873 18.5594 22.1308 20.0228 20.8704C21.4862 19.61 22.5075 17.8996 22.9329 15.997C23.3583 14.0944 23.1646 12.1026 22.3812 10.3218C21.5977 8.54091 20.2668 7.06746 18.5891 6.12343C16.9114 5.17941 14.9777 4.81593 13.0793 5.08779C11.181 5.35964 9.41183 6.12343 8.09876 7.24998L6.13513 9.17855L5.15332 10.1428M5.15332 10.1428V6.28569M5.15332 10.1428H9.08058" stroke="#6EBE49" stroke-width="2" stroke-linecap="round" stroke-linejoin="round"/>
<path d="M14.1533 10.5V15.1667L17.2644 16.7222" stroke="#6EBE49" stroke-width="2" stroke-linecap="round" stroke-linejoin="round"/>
</svg>
