<svg width="28" height="28" viewBox="0 0 28 28" fill="none" xmlns="http://www.w3.org/2000/svg">
<path d="M13.916 7.51001C18.0704 7.24546 22.7449 12.2755 19.1094 16.5114C16.2011 19.9002 16.7786 19.9221 16.7724 22.3358V22.3781V22.3781C16.7724 24.0736 16.8125 26.2496 15.1282 26.4446C14.8194 26.4804 14.4492 26.5 14.0051 26.5" stroke="#6EBE49" stroke-width="2" stroke-linecap="round"/>
<path d="M13.916 7.51001C9.76159 7.24546 5.08715 12.2755 8.72259 16.5114C11.6309 19.9002 11.0535 19.9221 11.0597 22.3358C11.0597 22.3419 11.0597 22.3492 11.0597 22.356C11.0597 22.3707 11.0597 22.3854 11.0597 22.4002V22.4002C11.0597 24.081 11.0135 26.243 12.6824 26.4421C12.9955 26.4794 13.3725 26.5 13.8269 26.5" stroke="#6EBE49" stroke-width="2" stroke-linecap="round"/>
<path d="M11.1855 23.418H16.0844" stroke="#6EBE49" stroke-width="1.2" stroke-linecap="round"/>
<rect x="12.9463" y="1" width="2.01571" height="4.16215" rx="1" fill="#6EBE49"/>
<rect width="2.04865" height="4.12358" rx="1" transform="matrix(0.695736 -0.718298 0.695736 0.718298 5.30176 5.12109)" fill="#6EBE49"/>
<rect width="2.04865" height="4.0973" rx="1" transform="matrix(0.695736 0.718298 -0.695736 0.718298 20.7656 3.28516)" fill="#6EBE49"/>
<rect x="2" y="13.4844" width="2.08107" height="4.03142" rx="1" transform="rotate(-90 2 13.4844)" fill="#6EBE49"/>
<rect x="21.5996" y="13.4844" width="2.08107" height="4.03142" rx="1" transform="rotate(-90 21.5996 13.4844)" fill="#6EBE49"/>
<path d="M13.7579 15.0822C14.4343 15.0822 14.9826 14.5339 14.9826 13.8575C14.9826 13.1811 14.4343 12.6328 13.7579 12.6328C13.0815 12.6328 12.5332 13.1811 12.5332 13.8575C12.5332 14.5339 13.0815 15.0822 13.7579 15.0822Z" stroke="#6EBE49" stroke-width="0.8" stroke-linecap="round" stroke-linejoin="round"/>
<path d="M16.2308 14.8637C16.1863 14.9644 16.173 15.0761 16.1927 15.1845C16.2123 15.2929 16.264 15.3928 16.341 15.4716L16.361 15.4916C16.4231 15.5536 16.4724 15.6273 16.506 15.7084C16.5396 15.7895 16.5569 15.8764 16.5569 15.9642C16.5569 16.052 16.5396 16.1389 16.506 16.22C16.4724 16.3011 16.4231 16.3748 16.361 16.4368C16.299 16.499 16.2253 16.5482 16.1442 16.5818C16.0631 16.6155 15.9762 16.6328 15.8884 16.6328C15.8006 16.6328 15.7137 16.6155 15.6326 16.5818C15.5515 16.5482 15.4778 16.499 15.4158 16.4368L15.3957 16.4168C15.317 16.3398 15.217 16.2881 15.1087 16.2685C15.0003 16.2489 14.8886 16.2621 14.7878 16.3066C14.689 16.3489 14.6048 16.4192 14.5454 16.5088C14.4861 16.5984 14.4543 16.7035 14.4538 16.8109V16.8677C14.4538 17.0449 14.3834 17.2148 14.2582 17.3401C14.1329 17.4654 13.963 17.5357 13.7858 17.5357C13.6086 17.5357 13.4387 17.4654 13.3134 17.3401C13.1882 17.2148 13.1178 17.0449 13.1178 16.8677V16.8377C13.1152 16.7271 13.0794 16.6199 13.0151 16.5299C12.9507 16.44 12.8608 16.3715 12.757 16.3333C12.6563 16.2888 12.5446 16.2756 12.4362 16.2952C12.3278 16.3149 12.2279 16.3665 12.1491 16.4435L12.1291 16.4636C12.0671 16.5257 11.9934 16.5749 11.9123 16.6086C11.8312 16.6422 11.7443 16.6595 11.6565 16.6595C11.5687 16.6595 11.4818 16.6422 11.4007 16.6086C11.3196 16.5749 11.2459 16.5257 11.1839 16.4636C11.1217 16.4015 11.0725 16.3278 11.0389 16.2468C11.0052 16.1657 10.9879 16.0787 10.9879 15.9909C10.9879 15.9032 11.0052 15.8162 11.0389 15.7351C11.0725 15.654 11.1217 15.5804 11.1839 15.5183L11.2039 15.4983C11.2809 15.4196 11.3326 15.3196 11.3522 15.2112C11.3718 15.1029 11.3586 14.9911 11.3141 14.8904C11.2718 14.7916 11.2015 14.7073 11.1119 14.648C11.0223 14.5886 10.9172 14.5568 10.8098 14.5564H10.753C10.5758 14.5564 10.4059 14.486 10.2806 14.3607C10.1553 14.2354 10.085 14.0655 10.085 13.8883C10.085 13.7112 10.1553 13.5413 10.2806 13.416C10.4059 13.2907 10.5758 13.2203 10.753 13.2203H10.783C10.8936 13.2177 11.0008 13.1819 11.0908 13.1176C11.1807 13.0533 11.2492 12.9634 11.2874 12.8596C11.3319 12.7588 11.3451 12.6471 11.3255 12.5387C11.3058 12.4304 11.2542 12.3304 11.1772 12.2517L11.1571 12.2316C11.095 12.1696 11.0458 12.0959 11.0121 12.0148C10.9785 11.9337 10.9612 11.8468 10.9612 11.759C10.9612 11.6712 10.9785 11.5843 11.0121 11.5032C11.0458 11.4221 11.095 11.3484 11.1571 11.2864C11.2192 11.2243 11.2929 11.175 11.3739 11.1414C11.455 11.1078 11.542 11.0905 11.6298 11.0905C11.7176 11.0905 11.8045 11.1078 11.8856 11.1414C11.9667 11.175 12.0403 11.2243 12.1024 11.2864L12.1224 11.3064C12.2011 11.3834 12.3011 11.4351 12.4095 11.4547C12.5178 11.4744 12.6296 11.4611 12.7303 11.4167H12.757C12.8558 11.3743 12.9401 11.304 12.9994 11.2144C13.0588 11.1248 13.0906 11.0198 13.0911 10.9123V10.8555C13.0911 10.6784 13.1614 10.5084 13.2867 10.3832C13.412 10.2579 13.5819 10.1875 13.7591 10.1875C13.9363 10.1875 14.1062 10.2579 14.2314 10.3832C14.3567 10.5084 14.4271 10.6784 14.4271 10.8555V10.8856C14.4275 10.9931 14.4594 11.0981 14.5187 11.1877C14.5781 11.2773 14.6623 11.3476 14.7611 11.3899C14.8619 11.4344 14.9736 11.4477 15.082 11.428C15.1903 11.4084 15.2903 11.3567 15.369 11.2797L15.3891 11.2597C15.4511 11.1976 15.5248 11.1483 15.6059 11.1147C15.687 11.0811 15.7739 11.0638 15.8617 11.0638C15.9495 11.0638 16.0364 11.0811 16.1175 11.1147C16.1986 11.1483 16.2723 11.1976 16.3343 11.2597C16.3964 11.3217 16.4457 11.3954 16.4793 11.4765C16.5129 11.5576 16.5302 11.6445 16.5302 11.7323C16.5302 11.8201 16.5129 11.907 16.4793 11.9881C16.4457 12.0692 16.3964 12.1429 16.3343 12.2049L16.3143 12.225C16.2373 12.3037 16.1856 12.4037 16.166 12.512C16.1463 12.6204 16.1596 12.7321 16.204 12.8329V12.8596C16.2464 12.9584 16.3167 13.0426 16.4063 13.102C16.4959 13.1613 16.6009 13.1932 16.7084 13.1936H16.7652C16.9424 13.1936 17.1123 13.264 17.2375 13.3893C17.3628 13.5145 17.4332 13.6845 17.4332 13.8616C17.4332 14.0388 17.3628 14.2087 17.2375 14.334C17.1123 14.4593 16.9424 14.5296 16.7652 14.5296H16.7351C16.6276 14.5301 16.5226 14.5619 16.433 14.6213C16.3434 14.6806 16.2731 14.7649 16.2308 14.8637V14.8637Z" stroke="#6EBE49" stroke-linecap="round" stroke-linejoin="round"/>
</svg>
