<svg width="28" height="28" viewBox="0 0 28 28" fill="none" xmlns="http://www.w3.org/2000/svg">
<circle cx="14" cy="14" r="14" fill="#6EBE49"/>
<path fill-rule="evenodd" clip-rule="evenodd" d="M15 7.41421V17.25C15 17.8023 14.5523 18.25 14 18.25C13.4477 18.25 13 17.8023 13 17.25V7.41421L10.3321 10.0821C9.94158 10.4726 9.30842 10.4726 8.91789 10.0821C8.52737 9.69158 8.52737 9.05842 8.91789 8.66789L13.2929 4.29289C13.4804 4.10536 13.7348 4 14 4C14.2652 4 14.5196 4.10536 14.7071 4.29289L19.0821 8.66789C19.4726 9.05842 19.4726 9.69158 19.0821 10.0821C18.6916 10.4726 18.0584 10.4726 17.6679 10.0821L15 7.41421ZM7 18C7 17.4477 6.55228 17 6 17C5.44772 17 5 17.4477 5 18V21C5 22.1046 5.89543 23 7 23H21C22.1046 23 23 22.1046 23 21V18C23 17.4477 22.5523 17 22 17C21.4477 17 21 17.4477 21 18V21H7V18Z" fill="white"/>
</svg>
